<?xml version="1.0" encoding="UTF-8"?>
<svg xmlns="http://www.w3.org/2000/svg" xmlns:xlink="http://www.w3.org/1999/xlink" width="60px" height="px" viewBox="0 0 60 60" version="1.1">
<g id="surface1">
<path style=" stroke:none;fill-rule:evenodd;fill:rgb(0%,49.411765%,73.333333%);fill-opacity:1;" d="M 6.667969 60 L 53.332031 60 C 57.015625 60 60 57.015625 60 53.332031 L 60 6.667969 C 60 2.984375 57.015625 0 53.332031 0 L 6.667969 0 C 2.984375 0 0 2.984375 0 6.667969 L 0 53.332031 C 0 57.015625 2.984375 60 6.667969 60 Z M 6.667969 60 "/>
<path style=" stroke:none;fill-rule:evenodd;fill:rgb(100%,100%,100%);fill-opacity:1;" d="M 51.667969 51.667969 L 42.761719 51.667969 L 42.761719 36.5 C 42.761719 32.34375 41.183594 30.019531 37.890625 30.019531 C 34.3125 30.019531 32.441406 32.4375 32.441406 36.5 L 32.441406 51.667969 L 23.859375 51.667969 L 23.859375 22.777344 L 32.441406 22.777344 L 32.441406 26.667969 C 32.441406 26.667969 35.023438 21.894531 41.152344 21.894531 C 47.28125 21.894531 51.667969 25.636719 51.667969 33.375 Z M 13.625 18.996094 C 10.703125 18.996094 8.332031 16.609375 8.332031 13.664062 C 8.332031 10.71875 10.703125 8.332031 13.625 8.332031 C 16.546875 8.332031 18.914062 10.71875 18.914062 13.664062 C 18.914062 16.609375 16.546875 18.996094 13.625 18.996094 Z M 9.195312 51.667969 L 18.140625 51.667969 L 18.140625 22.777344 L 9.195312 22.777344 Z M 9.195312 51.667969 "/>
</g>
</svg>
