<?xml version="1.0" encoding="UTF-8"?>
<svg xmlns="http://www.w3.org/2000/svg" xmlns:xlink="http://www.w3.org/1999/xlink" width="60px" height="px" viewBox="0 0 60 60" version="1.1">
<g id="surface1">
<path style=" stroke:none;fill-rule:nonzero;fill:rgb(0%,0%,0%);fill-opacity:1;" d="M 24.417969 39.761719 C 22.746094 39.761719 21.835938 38.339844 21.835938 35.730469 C 21.835938 30.90625 26.847656 17.226562 34.816406 17.226562 C 36.335938 17.226562 37.246094 17.542969 38.382812 18.332031 C 36.941406 25.6875 29.804688 39.761719 24.417969 39.761719 M 39.21875 15.328125 L 38.914062 15.960938 C 37.472656 15.167969 36.488281 14.933594 34.742188 14.933594 C 21.230469 14.933594 15.613281 31.0625 15.613281 36.914062 C 15.613281 42.054688 18.34375 43.398438 20.621094 43.476562 C 26.390625 43.636719 32.386719 36.519531 34.511719 32.566406 L 34.664062 32.644531 C 32.085938 41.027344 34.363281 43.476562 38.917969 43.476562 C 47.796875 43.476562 55.996094 35.175781 55.996094 24.339844 C 55.996094 11.53125 47.191406 1.175781 32.765625 1.175781 C 17.128906 1.175781 2.175781 13.035156 2.175781 33.117188 C 2.175781 50.199219 15.382812 58.265625 28.0625 58.265625 C 32.765625 58.265625 38.914062 57.394531 43.621094 54.707031 L 43.015625 52.730469 C 39.597656 54.230469 34.589844 55.179688 30.1875 55.179688 C 13.105469 55.179688 8.097656 42.527344 8.097656 32.804688 C 8.097656 18.332031 17.660156 4.414062 32.917969 4.414062 C 43.699219 4.414062 52.429688 11.769531 52.199219 24.738281 C 52.199219 32.882812 46.8125 40.472656 41.726562 40.472656 C 39.601562 40.472656 38.234375 39.523438 39.144531 35.730469 L 44.15625 15.328125 L 39.21875 15.328125 "/>
</g>
</svg>
